# xmcd
#
# Track frame offsets:
#	150
#	13878
#	26918
#	40033
#	54913
#	67562
#	81035
#	95133
#	109293
#	123455
#	138155
#	150804
#	164080
#	177386
#	193398
#	208529
#	222363
#	234153
#	248292
#	261512
#	274330
#	287041
#	298861
#	312891
#	327969
#	341044
#
# Disc length: 4720 seconds
#
# Revision: 0
# Processed by: cddbd v1.5.2PL0 Copyright (c) Steve Scherf et al.
# Submitted via: EasyCDDAExtractor 11.1.0.1
#
DISCID=83126e1a
DTITLE=Various Artist - The Meaning Of The Blues
DYEAR=2018
DGENRE=Blues
TTITLE0=Lewis Black - Gravel Camp Blues (1927)
TTITLE1=Bob Campbell - Starvation Farm Blues (1934)
TTITLE2=Barbeque Bob - Chocolate To The Bone (1928)
TTITLE3=Stovepipe No. 1 And David Crockett - Court Street Blues (1927)
TTITLE4=Texas Alexander - When You Get To Thinking (1930)
TTITLE5=Tallahassee Tight - Tallahassee Blues (1934)
TTITLE6=Peg Leg Howell - Skin Game Blues (1928)
TTITLE7=Texas Bill Day And Billken Johnson - Elm Street Blues (1929)
TTITLE8=Barefoot Bill - Bad Boy (1930)
TTITLE9=Kansas Joe And Memphis Minnie - When The Levee Breaks (1929)
TTITLE10=Blind Boy Fuller - When You Are Gone (1940)
TTITLE11=Bukka White - Strange Place Blues (1940)
TTITLE12=Henry Williams And Eddie Anthony - Lonesome Blues (1928)
TTITLE13=Otis Harris - Waking Blues (1928)
TTITLE14=Jack Ranger - Thieving Blues (1930)
TTITLE15=Washington Phillips - Denomination Blues, Part 1 (1927)
TTITLE16=Washington Phillips - Denomination Blues, Part 2 (1927)
TTITLE17=Hambone Willie Newbern - Nobody Knows (What the Good Deacon Does) (19
TTITLE17=29)
TTITLE18=Bumble Bee Slim - Policy Dream Blues (You Better Get On It) (1935)
TTITLE19=Memphis Minnie, Black Bob And Bill Settles - Joe Louis Strut (1935)
TTITLE20=George Noble - Sissy Man Blues ( 1934)
TTITLE21=Robert Johnson - Phonograph Blues (1961)
TTITLE22=Hambone Willie Newbern - Roll And Tumble Blues (1929)
TTITLE23=Curley Weaver - Sweet Petunia (1928)
TTITLE24=Bessie Jackson - Shave 'Em Dry (1935)
TTITLE25=Memphis Minnie - He's In The Ring (Doin' The Same Old Thing) (1935)
EXTD=
EXTT0=
EXTT1=
EXTT2=
EXTT3=
EXTT4=
EXTT5=
EXTT6=
EXTT7=
EXTT8=
EXTT9=
EXTT10=
EXTT11=
EXTT12=
EXTT13=
EXTT14=
EXTT15=
EXTT16=
EXTT17=
EXTT18=
EXTT19=
EXTT20=
EXTT21=
EXTT22=
EXTT23=
EXTT24=
EXTT25=
PLAYORDER=
